<?xml version="1.0" standalone="no"?>
<!DOCTYPE svg PUBLIC "-//W3C//DTD SVG 20010904//EN"
 "http://www.w3.org/TR/2001/REC-SVG-20010904/DTD/svg10.dtd">
<svg version="1.0" xmlns="http://www.w3.org/2000/svg"
 width="100.000000pt" height="100.000000pt" viewBox="0 0 100.000000 100.000000"
 preserveAspectRatio="xMidYMid meet">

<g transform="translate(0.000000,100.000000) scale(0.100000,-0.100000)"
fill="#000000" stroke="none">
<path d="M439 971 l-29 -29 0 -220 0 -219 26 -27 27 -26 239 0 240 0 29 29
c25 25 29 37 29 81 0 44 -4 56 -29 81 l-29 29 -156 0 -156 0 0 136 0 136 -29
29 c-25 25 -37 29 -81 29 -44 0 -56 -4 -81 -29z m135 -27 c13 -13 16 -42 16
-165 l0 -149 169 0 c192 0 201 -3 201 -70 0 -69 -4 -70 -248 -70 -181 0 -221
3 -240 16 -22 15 -22 20 -22 219 0 172 2 206 16 219 20 21 88 21 108 0z"/>
<path d="M275 438 c-159 -25 -154 -23 -120 -58 33 -35 36 -29 -74 -143 l-76
-77 68 -67 67 -68 93 93 92 92 31 -30 30 -31 23 128 c12 70 25 140 27 156 7
33 9 33 -161 5z m115 -36 c0 -13 -20 -125 -27 -146 -5 -17 -6 -17 -21 -2 -15
15 -24 9 -109 -76 l-93 -92 -40 39 -40 39 92 93 c88 89 92 94 75 110 -17 17
-15 19 45 29 79 14 118 16 118 6z"/>
</g>
</svg>
