<?xml version="1.0" standalone="no"?>
<!DOCTYPE svg PUBLIC "-//W3C//DTD SVG 20010904//EN"
 "http://www.w3.org/TR/2001/REC-SVG-20010904/DTD/svg10.dtd">
<svg version="1.0" xmlns="http://www.w3.org/2000/svg"
 width="100.000000pt" height="100.000000pt" viewBox="0 0 100.000000 100.000000"
 preserveAspectRatio="xMidYMid meet">

<g transform="translate(0.000000,100.000000) scale(0.100000,-0.100000)"
fill="#000000" stroke="none">
<path d="M34 966 l-34 -34 0 -440 0 -440 31 -26 31 -26 430 0 430 0 35 35 c34
34 35 37 31 97 -4 55 -8 64 -38 90 l-34 28 -333 0 -333 0 0 341 0 341 -34 34
c-31 31 -40 34 -91 34 -51 0 -60 -3 -91 -34z m156 -26 c19 -19 20 -33 20 -375
l0 -354 356 -3 c339 -3 356 -4 370 -22 22 -30 18 -102 -7 -127 -20 -20 -27
-20 -440 -17 -403 3 -421 4 -435 22 -12 16 -14 93 -14 438 0 405 1 419 20 438
14 14 33 20 65 20 32 0 51 -6 65 -20z"/>
<path d="M669 824 l-153 -154 -28 27 c-39 37 -53 36 -67 -6 -15 -43 -128 -346
-142 -379 -23 -57 -25 -58 313 79 53 22 109 44 124 49 l27 11 -33 34 -34 35
64 68 c36 37 105 109 155 159 l90 93 -68 68 c-38 38 -74 69 -82 69 -7 0 -82
-69 -166 -153z m231 31 c12 -14 -6 -36 -145 -175 l-159 -159 27 -29 27 -28
-142 -56 c-79 -31 -144 -54 -146 -53 -3 2 98 276 104 284 2 2 12 -3 22 -12 10
-10 25 -17 33 -17 8 0 81 67 163 149 l150 150 26 -19 c15 -11 33 -26 40 -35z"/>
</g>
</svg>
