<?xml version="1.0" standalone="no"?>
<!DOCTYPE svg PUBLIC "-//W3C//DTD SVG 20010904//EN"
 "http://www.w3.org/TR/2001/REC-SVG-20010904/DTD/svg10.dtd">
<svg version="1.0" xmlns="http://www.w3.org/2000/svg"
 width="200.000000pt" height="200.000000pt" viewBox="0 0 200.000000 200.000000"
 preserveAspectRatio="xMidYMid meet">

<g transform="translate(0.000000,200.000000) scale(0.100000,-0.100000)"
fill="#000000" stroke="none">
<path d="M155 1984 c-57 -20 -109 -66 -134 -117 -21 -43 -21 -52 -21 -867 0
-815 0 -824 21 -867 11 -24 37 -56 57 -73 75 -62 49 -60 912 -60 886 0 847 -3
925 75 78 78 75 39 75 925 0 886 3 847 -75 925 -78 78 -38 75 -929 74 -660 0
-798 -3 -831 -15z m822 -47 c-2 -7 -70 -134 -150 -282 l-146 -270 155 -3 c85
-1 223 -1 308 0 l155 3 -146 270 c-80 148 -148 275 -150 283 -5 10 67 12 399
10 l404 -3 41 -27 c22 -15 51 -44 64 -65 l24 -38 3 -387 c2 -214 0 -388 -3
-388 -6 0 -509 265 -542 286 l-23 14 1 -252 c1 -139 4 -278 8 -309 l6 -56 130
72 c72 40 195 108 275 152 l145 79 3 -399 c1 -259 -2 -413 -8 -439 -14 -50
-77 -113 -127 -127 -53 -15 -1573 -15 -1626 0 -50 14 -113 77 -127 128 -15 56
-15 1566 0 1622 13 49 76 114 122 128 18 5 208 10 422 10 311 1 387 -2 383
-12z m130 -302 l111 -205 -228 0 -228 0 111 205 c61 113 113 205 117 205 4 0
56 -92 117 -205z m523 -491 c110 -59 200 -110 200 -114 0 -7 -374 -212 -397
-218 -10 -3 -13 44 -13 217 0 122 2 221 5 221 2 0 94 -48 205 -106z"/>
<path d="M565 1286 c-22 -13 -149 -81 -282 -152 -134 -71 -243 -131 -243 -134
0 -3 128 -73 283 -157 l282 -152 3 154 c1 85 1 224 0 309 l-3 154 -40 -22z
m-5 -287 c0 -206 -1 -221 -17 -215 -35 13 -393 210 -393 217 0 6 390 218 403
219 4 0 7 -99 7 -221z"/>
<path d="M1069 1205 c-44 -24 -51 -57 -47 -235 l3 -162 28 -24 c42 -36 109
-34 148 5 l29 29 0 161 c0 103 -4 169 -12 186 -23 50 -95 69 -149 40z m76
-220 c0 -143 -1 -150 -20 -150 -19 0 -20 8 -23 140 -1 76 0 145 3 153 3 7 13
12 22 10 16 -3 18 -18 18 -153z"/>
<path d="M853 1198 c-19 -9 -23 -19 -23 -55 0 -40 2 -43 19 -33 40 21 41 16
41 -170 l0 -180 35 0 35 0 0 225 0 225 -42 -1 c-24 0 -53 -5 -65 -11z"/>
<path d="M767 532 c32 -59 101 -187 153 -285 52 -97 97 -177 100 -177 3 0 48
80 100 177 52 98 121 226 153 285 l58 108 -311 0 -311 0 58 -108z m370 -147
c-61 -113 -113 -205 -117 -205 -4 0 -56 92 -117 205 l-111 205 228 0 228 0
-111 -205z"/>
</g>
</svg>
