<?xml version="1.0" standalone="no"?>
<!DOCTYPE svg PUBLIC "-//W3C//DTD SVG 20010904//EN"
 "http://www.w3.org/TR/2001/REC-SVG-20010904/DTD/svg10.dtd">
<svg version="1.0" xmlns="http://www.w3.org/2000/svg"
 width="200.000000pt" height="200.000000pt" viewBox="0 0 200.000000 200.000000"
 preserveAspectRatio="xMidYMid meet">

<g transform="translate(0.000000,200.000000) scale(0.100000,-0.100000)"
fill="#000000" stroke="none">
<path d="M155 1984 c-57 -20 -109 -66 -134 -117 -21 -43 -21 -52 -21 -867 0
-815 0 -824 21 -867 11 -24 37 -56 57 -73 75 -62 49 -60 912 -60 886 0 847 -3
925 75 78 78 75 39 75 925 0 886 3 847 -75 925 -78 78 -38 75 -929 74 -660 0
-798 -3 -831 -15z m822 -47 c-2 -7 -70 -134 -150 -282 l-146 -270 155 -3 c85
-1 223 -1 308 0 l155 3 -146 270 c-80 148 -148 275 -150 283 -5 10 67 12 399
10 l404 -3 41 -27 c22 -15 51 -44 64 -65 l24 -38 3 -387 c2 -214 0 -388 -3
-388 -6 0 -509 265 -542 286 l-23 14 1 -252 c1 -139 4 -278 8 -309 l6 -56 130
72 c72 40 195 108 275 152 l145 79 3 -399 c1 -259 -2 -413 -8 -439 -14 -50
-77 -113 -127 -127 -53 -15 -1573 -15 -1626 0 -50 14 -113 77 -127 128 -15 56
-15 1566 0 1622 13 49 76 114 122 128 18 5 208 10 422 10 311 1 387 -2 383
-12z m130 -302 l111 -205 -228 0 -228 0 111 205 c61 113 113 205 117 205 4 0
56 -92 117 -205z m523 -491 c110 -59 200 -110 200 -114 0 -7 -374 -212 -397
-218 -10 -3 -13 44 -13 217 0 122 2 221 5 221 2 0 94 -48 205 -106z"/>
<path d="M565 1286 c-22 -13 -149 -81 -282 -152 -134 -71 -243 -131 -243 -134
0 -3 128 -73 283 -157 l282 -152 3 154 c1 85 1 224 0 309 l-3 154 -40 -22z
m-5 -287 c0 -206 -1 -221 -17 -215 -35 13 -393 210 -393 217 0 6 390 218 403
219 4 0 7 -99 7 -221z"/>
<path d="M940 1115 l0 -125 33 0 c18 0 38 5 44 11 7 7 19 9 27 6 22 -9 23
-119 1 -137 -12 -10 -18 -10 -30 0 -8 7 -15 19 -15 26 0 9 -12 14 -35 14 -33
0 -35 -2 -35 -35 0 -55 36 -85 100 -85 41 0 56 5 75 25 23 22 25 31 25 123 0
87 -3 103 -22 127 -18 24 -26 27 -60 22 l-39 -5 3 41 3 42 58 3 57 3 0 34 0
35 -95 0 -95 0 0 -125z"/>
<path d="M767 532 c32 -59 101 -187 153 -285 52 -97 97 -177 100 -177 3 0 48
80 100 177 52 98 121 226 153 285 l58 108 -311 0 -311 0 58 -108z m370 -147
c-61 -113 -113 -205 -117 -205 -4 0 -56 92 -117 205 l-111 205 228 0 228 0
-111 -205z"/>
</g>
</svg>
