<?xml version="1.0" standalone="no"?>
<!DOCTYPE svg PUBLIC "-//W3C//DTD SVG 20010904//EN"
 "http://www.w3.org/TR/2001/REC-SVG-20010904/DTD/svg10.dtd">
<svg version="1.0" xmlns="http://www.w3.org/2000/svg"
 width="200.000000pt" height="200.000000pt" viewBox="0 0 200.000000 200.000000"
 preserveAspectRatio="xMidYMid meet">

<g transform="translate(0.000000,200.000000) scale(0.100000,-0.100000)"
fill="#000000" stroke="none">
<path d="M155 1984 c-57 -20 -109 -66 -134 -117 -21 -43 -21 -52 -21 -867 0
-815 0 -824 21 -867 11 -24 37 -56 57 -73 75 -62 49 -60 912 -60 886 0 847 -3
925 75 78 78 75 39 75 925 0 886 3 847 -75 925 -78 78 -38 75 -929 74 -660 0
-798 -3 -831 -15z m825 -40 c0 -3 -50 -97 -110 -209 -61 -112 -110 -208 -110
-214 0 -6 -16 -40 -36 -76 l-36 -65 311 0 311 0 -17 35 c-9 19 -20 35 -24 35
-4 0 -10 11 -13 24 -3 14 -12 31 -19 38 -14 13 -237 421 -237 433 0 3 181 5
403 3 l403 -3 41 -27 c22 -15 51 -44 64 -65 l24 -38 3 -387 c2 -214 1 -388 -2
-388 -6 0 -389 204 -488 260 l-68 38 0 -237 c0 -131 3 -272 6 -314 l7 -76 46
26 c25 14 53 34 61 43 8 10 100 64 205 120 104 57 200 110 213 118 l23 15 -3
-424 -3 -424 -24 -38 c-13 -21 -41 -50 -63 -65 -39 -25 -47 -26 -252 -35 -273
-11 -1368 -1 -1419 14 -50 14 -113 77 -127 128 -15 56 -15 1566 0 1622 13 49
76 114 122 128 35 10 808 15 808 5z m90 -241 c40 -76 83 -151 94 -168 12 -16
32 -47 44 -67 l21 -38 -229 0 -229 0 20 35 c11 19 22 41 23 49 3 21 168 326
176 326 4 0 40 -62 80 -137z m411 -476 c19 -13 105 -60 192 -106 86 -46 157
-87 157 -91 0 -3 -71 -45 -159 -92 -87 -48 -171 -98 -186 -112 -54 -50 -55
-47 -55 199 0 124 4 225 9 225 4 0 23 -10 42 -23z"/>
<path d="M504 1252 c-198 -103 -464 -247 -464 -252 0 -3 103 -60 228 -127 125
-68 254 -138 288 -157 l60 -34 2 314 c1 173 1 314 0 314 -2 0 -53 -26 -114
-58z m56 -253 c0 -206 -1 -221 -17 -215 -35 13 -393 210 -393 217 0 6 390 218
403 219 4 0 7 -99 7 -221z"/>
<path d="M656 1158 c-3 -13 -6 -48 -6 -79 l0 -56 52 -5 c38 -4 57 -12 70 -28
52 -64 -22 -142 -105 -111 -23 9 -27 8 -27 -8 0 -22 19 -31 66 -31 51 0 93 26
110 67 30 70 -10 131 -91 141 -42 4 -46 7 -41 26 3 12 6 33 6 49 0 26 1 27 60
27 47 0 60 3 60 15 0 12 -15 15 -74 15 -68 0 -74 -2 -80 -22z"/>
<path d="M939 1165 c-15 -8 -34 -32 -43 -55 -20 -50 -21 -159 -2 -204 37 -88
145 -88 182 0 19 46 18 177 -1 219 -25 52 -83 69 -136 40z m93 -46 c42 -57 31
-203 -18 -235 -31 -21 -70 -7 -84 32 -15 39 -12 161 5 194 24 47 66 51 97 9z"/>
<path d="M1199 1165 c-15 -8 -34 -32 -43 -55 -20 -50 -21 -159 -2 -204 37 -88
145 -88 182 0 19 46 18 177 -1 219 -25 52 -83 69 -136 40z m93 -46 c42 -57 31
-203 -18 -235 -31 -21 -70 -7 -84 32 -15 39 -12 161 5 194 24 47 66 51 97 9z"/>
<path d="M725 614 c9 -9 19 -29 22 -45 3 -16 9 -29 14 -29 8 0 151 -262 158
-289 2 -8 9 -21 17 -28 8 -8 17 -26 20 -40 4 -14 15 -34 25 -44 11 -11 19 -26
19 -35 0 -15 28 -50 34 -43 9 10 176 327 176 333 0 4 7 14 15 22 8 9 18 27 22
42 3 15 9 29 13 32 4 3 24 35 45 73 l37 67 -317 0 c-292 0 -315 -1 -300 -16z
m525 -39 c0 -12 -24 -55 -32 -55 -4 0 -8 -6 -8 -14 0 -12 -161 -321 -175 -334
-7 -7 -30 21 -44 56 -7 17 -17 32 -22 32 -5 0 -9 9 -9 20 0 11 -9 29 -20 40
-11 11 -20 26 -20 33 0 6 -27 60 -59 120 l-59 107 224 0 c123 0 224 -2 224 -5z"/>
</g>
</svg>
