<?xml version="1.0" standalone="no"?>
<!DOCTYPE svg PUBLIC "-//W3C//DTD SVG 20010904//EN"
 "http://www.w3.org/TR/2001/REC-SVG-20010904/DTD/svg10.dtd">
<svg version="1.0" xmlns="http://www.w3.org/2000/svg"
 width="200.000000pt" height="200.000000pt" viewBox="0 0 200.000000 200.000000"
 preserveAspectRatio="xMidYMid meet">

<g transform="translate(0.000000,200.000000) scale(0.100000,-0.100000)"
fill="#000000" stroke="none">
<path d="M155 1984 c-57 -20 -109 -66 -134 -117 -21 -43 -21 -52 -21 -867 0
-815 0 -824 21 -867 11 -24 37 -56 57 -73 75 -62 49 -60 912 -60 886 0 847 -3
925 75 78 78 75 39 75 925 0 886 3 847 -75 925 -78 78 -38 75 -929 74 -660 0
-798 -3 -831 -15z m825 -40 c0 -3 -50 -97 -110 -209 -61 -112 -110 -208 -110
-214 0 -6 -16 -40 -36 -76 l-36 -65 311 0 311 0 -17 35 c-9 19 -20 35 -24 35
-4 0 -10 11 -13 24 -3 14 -12 31 -19 38 -14 13 -237 421 -237 433 0 3 181 5
403 3 l403 -3 41 -27 c22 -15 51 -44 64 -65 l24 -38 3 -387 c2 -214 1 -388 -2
-388 -6 0 -389 204 -488 260 l-68 38 0 -237 c0 -131 3 -272 6 -314 l7 -76 46
26 c25 14 53 34 61 43 8 10 100 64 205 120 104 57 200 110 213 118 l23 15 -3
-424 -3 -424 -24 -38 c-13 -21 -41 -50 -63 -65 -39 -25 -47 -26 -252 -35 -273
-11 -1368 -1 -1419 14 -50 14 -113 77 -127 128 -15 56 -15 1566 0 1622 13 49
76 114 122 128 35 10 808 15 808 5z m90 -241 c40 -76 83 -151 94 -168 12 -16
32 -47 44 -67 l21 -38 -229 0 -229 0 20 35 c11 19 22 41 23 49 3 21 168 326
176 326 4 0 40 -62 80 -137z m411 -476 c19 -13 105 -60 192 -106 86 -46 157
-87 157 -91 0 -3 -71 -45 -159 -92 -87 -48 -171 -98 -186 -112 -54 -50 -55
-47 -55 199 0 124 4 225 9 225 4 0 23 -10 42 -23z"/>
<path d="M504 1252 c-191 -99 -464 -247 -464 -252 1 -3 130 -75 288 -160 l287
-156 3 159 c1 87 1 228 0 312 l-3 154 -111 -57z m56 -253 c0 -206 -1 -221 -17
-215 -35 13 -393 210 -393 217 0 6 390 218 403 219 4 0 7 -99 7 -221z"/>
<path d="M1060 1010 l0 -240 50 0 49 0 3 76 3 77 48 -77 49 -76 59 0 60 0 -54
73 c-74 101 -72 94 -43 132 14 18 26 37 26 40 0 4 14 25 31 46 l31 39 -59 0
-59 0 -45 -75 -44 -75 -3 150 -3 150 -49 0 -50 0 0 -240z"/>
<path d="M716 1168 c-3 -35 -8 -93 -11 -130 l-6 -68 70 0 c63 0 71 -2 90 -26
27 -34 26 -47 -1 -79 -25 -28 -59 -34 -120 -22 l-38 8 0 -39 c0 -38 2 -40 38
-46 95 -15 171 7 210 62 26 36 29 112 7 165 -16 39 -70 67 -130 67 -35 0 -35
0 -35 45 l0 45 80 0 80 0 0 40 0 40 -114 0 -114 0 -6 -62z"/>
<path d="M725 614 c9 -9 19 -29 22 -45 3 -16 9 -29 14 -29 8 0 151 -262 158
-289 2 -8 9 -21 17 -28 8 -8 17 -26 20 -40 4 -14 15 -34 25 -44 11 -11 19 -26
19 -35 0 -15 28 -50 34 -43 9 10 176 327 176 333 0 4 7 14 15 22 8 9 18 27 22
42 3 15 9 29 13 32 4 3 24 35 45 73 l37 67 -317 0 c-292 0 -315 -1 -300 -16z
m525 -39 c0 -12 -24 -55 -32 -55 -4 0 -8 -6 -8 -14 0 -12 -161 -321 -175 -334
-7 -7 -30 21 -44 56 -7 17 -17 32 -22 32 -5 0 -9 9 -9 20 0 11 -9 29 -20 40
-11 11 -20 26 -20 33 0 6 -27 60 -59 120 l-59 107 224 0 c123 0 224 -2 224 -5z"/>
</g>
</svg>
