<?xml version="1.0" standalone="no"?>
<!DOCTYPE svg PUBLIC "-//W3C//DTD SVG 20010904//EN"
 "http://www.w3.org/TR/2001/REC-SVG-20010904/DTD/svg10.dtd">
<svg version="1.0" xmlns="http://www.w3.org/2000/svg"
 width="100.000000pt" height="100.000000pt" viewBox="0 0 100.000000 100.000000"
 preserveAspectRatio="xMidYMid meet">

<g transform="translate(0.000000,100.000000) scale(0.100000,-0.100000)"
fill="#000000" stroke="none">
<path d="M29 981 l-24 -19 0 -465 c0 -380 3 -467 14 -481 12 -15 56 -16 495
-14 l481 3 0 65 0 65 -95 5 -94 5 -57 102 c-142 257 -260 366 -505 469 l-92
39 -4 104 c-3 94 -6 105 -27 122 -30 24 -62 24 -92 0z m256 -450 c111 -57 217
-160 287 -277 76 -127 96 -114 -181 -114 l-241 0 0 226 0 225 23 -6 c12 -4 62
-28 112 -54z"/>
<path d="M270 340 c-40 -40 -11 -110 45 -110 32 0 65 33 65 65 0 14 -9 34 -20
45 -11 11 -31 20 -45 20 -14 0 -34 -9 -45 -20z"/>
<path d="M748 888 c-22 -8 -28 -16 -28 -40 0 -25 3 -29 18 -23 55 24 102 13
102 -24 0 -10 -14 -30 -31 -47 -54 -51 -61 -104 -13 -104 18 0 24 5 24 22 0
13 18 38 45 64 47 43 58 81 35 124 -18 35 -96 49 -152 28z"/>
<path d="M769 604 c-17 -21 0 -49 31 -49 31 0 48 28 31 49 -8 9 -21 16 -31 16
-10 0 -23 -7 -31 -16z"/>
</g>
</svg>
