<?xml version="1.0" standalone="no"?>
<!DOCTYPE svg PUBLIC "-//W3C//DTD SVG 20010904//EN"
 "http://www.w3.org/TR/2001/REC-SVG-20010904/DTD/svg10.dtd">
<svg version="1.0" xmlns="http://www.w3.org/2000/svg"
 width="100.000000pt" height="100.000000pt" viewBox="0 0 100.000000 100.000000"
 preserveAspectRatio="xMidYMid meet">

<g transform="translate(0.000000,100.000000) scale(0.100000,-0.100000)"
fill="#000000" stroke="none">
<path d="M1 898 l1 -103 15 44 c20 57 87 124 144 144 l44 15 -102 1 -103 1 1
-102z"/>
<path d="M839 983 c57 -20 124 -87 144 -144 l15 -44 1 103 1 102 -102 -1 -103
-1 44 -15z"/>
<path d="M175 945 c-51 -18 -110 -81 -124 -131 -15 -53 -15 -576 0 -629 15
-52 82 -119 134 -134 54 -15 576 -15 630 0 52 15 119 82 134 134 15 54 15 576
0 630 -15 52 -82 119 -134 134 -62 17 -589 14 -640 -4z m325 -225 c0 -4 -43
-40 -95 -79 l-95 -71 0 40 0 40 -100 0 -100 0 0 75 0 75 100 0 100 0 0 40 0
41 95 -77 c52 -42 95 -80 95 -84z m310 -260 l0 -370 -145 0 -145 0 0 370 0
370 145 0 145 0 0 -370z"/>
<path d="M350 775 c0 -12 -17 -15 -100 -15 l-100 0 0 -35 0 -35 100 0 c95 0
100 -1 100 -21 0 -19 3 -18 43 12 23 18 44 34 47 36 5 4 -44 47 -72 63 -14 8
-18 7 -18 -5z"/>
<path d="M560 460 l0 -330 105 0 105 0 0 330 0 330 -105 0 -105 0 0 -330z"/>
<path d="M1 103 l-1 -103 103 1 102 1 -44 15 c-57 20 -124 87 -144 144 l-15
44 -1 -102z"/>
<path d="M981 159 c-16 -53 -85 -122 -142 -142 l-44 -15 103 -1 102 -1 0 100
c0 55 -2 100 -3 100 -2 0 -9 -18 -16 -41z"/>
</g>
</svg>
