<?xml version="1.0" standalone="no"?>
<!DOCTYPE svg PUBLIC "-//W3C//DTD SVG 20010904//EN"
 "http://www.w3.org/TR/2001/REC-SVG-20010904/DTD/svg10.dtd">
<svg version="1.0" xmlns="http://www.w3.org/2000/svg"
 width="100.000000pt" height="100.000000pt" viewBox="0 0 100.000000 100.000000"
 preserveAspectRatio="xMidYMid meet">

<g transform="translate(0.000000,100.000000) scale(0.100000,-0.100000)"
fill="#000000" stroke="none">
<path d="M1 898 l1 -103 15 44 c20 57 87 124 144 144 l44 15 -102 1 -103 1 1
-102z"/>
<path d="M839 983 c57 -20 124 -87 144 -144 l15 -44 1 103 1 102 -102 -1 -103
-1 44 -15z"/>
<path d="M175 945 c-51 -18 -110 -81 -124 -131 -15 -53 -15 -576 0 -629 15
-52 82 -119 134 -134 54 -15 576 -15 630 0 52 15 119 82 134 134 6 22 11 82
11 133 l0 92 -80 0 -80 0 0 -30 0 -31 -72 55 -73 55 -3 -189 -2 -190 -130 0
-130 0 0 255 0 255 130 0 129 0 3 -55 3 -54 73 55 72 55 0 -31 0 -30 80 0 80
0 0 123 c0 67 -5 140 -11 162 -15 52 -82 119 -134 134 -62 17 -589 14 -640 -4z
m415 -85 l0 -80 30 0 30 0 -56 -75 c-31 -41 -60 -75 -64 -75 -4 0 -33 34 -64
75 l-56 75 30 0 30 0 0 80 0 80 60 0 60 0 0 -80z m-222 -380 c1 -4 -31 -33
-73 -64 l-75 -56 0 30 0 30 -80 0 -80 0 0 60 0 60 80 0 80 0 0 31 0 30 73 -56
c39 -32 73 -60 75 -65z"/>
<path d="M510 821 c0 -44 -4 -81 -9 -83 -5 -1 -1 -14 10 -27 l19 -23 19 23
c11 13 15 26 10 27 -5 2 -9 39 -9 83 0 72 -2 79 -20 79 -18 0 -20 -7 -20 -79z"/>
<path d="M260 510 c0 -6 -31 -10 -80 -10 -73 0 -80 -2 -80 -20 0 -18 7 -20 80
-20 49 0 80 -4 80 -10 0 -6 11 -3 25 7 13 10 24 20 24 23 0 3 -11 13 -24 23
-14 10 -25 13 -25 7z"/>
<path d="M430 335 l0 -215 90 0 90 0 0 215 0 215 -90 0 -90 0 0 -215z"/>
<path d="M731 489 l-23 -19 23 -19 c13 -11 26 -15 27 -10 2 5 39 9 83 9 72 0
79 2 79 20 0 18 -7 20 -79 20 -44 0 -81 4 -83 9 -1 5 -14 1 -27 -10z"/>
<path d="M1 103 l-1 -103 103 1 102 1 -44 15 c-57 20 -124 87 -144 144 l-15
44 -1 -102z"/>
<path d="M981 159 c-16 -53 -85 -122 -142 -142 l-44 -15 103 -1 102 -1 0 100
c0 55 -2 100 -3 100 -2 0 -9 -18 -16 -41z"/>
</g>
</svg>
